<svg width="86" height="285" viewBox="0 0 86 285" fill="none" xmlns="http://www.w3.org/2000/svg">
<g opacity="0.5">
<rect x="0.68457" y="147.515" width="2.01956" height="2.02287" fill="black"/>
<rect x="14.1289" y="147.515" width="2.01956" height="2.02287" fill="black"/>
<rect x="27.5811" y="147.515" width="2.01956" height="2.02287" fill="black"/>
<rect x="41.0254" y="147.515" width="2.01956" height="2.02287" fill="black"/>
<rect x="54.4707" y="147.515" width="2.01956" height="2.02287" fill="black"/>
<rect x="67.9141" y="147.515" width="2.01956" height="2.02287" fill="black"/>
<rect x="81.3652" y="147.515" width="2.01956" height="2.02287" fill="black"/>
<rect x="0.68457" y="160.981" width="2.01956" height="2.02287" fill="black"/>
<rect x="14.1289" y="160.981" width="2.01956" height="2.02287" fill="black"/>
<rect x="27.5811" y="160.981" width="2.01956" height="2.02287" fill="black"/>
<rect x="41.0254" y="160.981" width="2.01956" height="2.02287" fill="black"/>
<rect x="54.4707" y="160.981" width="2.01956" height="2.02287" fill="black"/>
<rect x="67.9141" y="160.981" width="2.01956" height="2.02287" fill="black"/>
<rect x="81.3652" y="160.981" width="2.01956" height="2.02287" fill="black"/>
<rect x="0.68457" y="174.455" width="2.01956" height="2.02287" fill="black"/>
<rect x="14.1289" y="174.455" width="2.01956" height="2.02287" fill="black"/>
<rect x="27.5811" y="174.455" width="2.01956" height="2.02287" fill="black"/>
<rect x="41.0254" y="174.455" width="2.01956" height="2.02287" fill="black"/>
<rect x="54.4707" y="174.455" width="2.01956" height="2.02287" fill="black"/>
<rect x="67.9141" y="174.455" width="2.01956" height="2.02287" fill="black"/>
<rect x="81.3652" y="174.455" width="2.01956" height="2.02287" fill="black"/>
<rect x="0.68457" y="187.921" width="2.01956" height="2.02287" fill="black"/>
<rect x="14.1289" y="187.921" width="2.01956" height="2.02287" fill="black"/>
<rect x="27.5811" y="187.921" width="2.01956" height="2.02287" fill="black"/>
<rect x="41.0254" y="187.921" width="2.01956" height="2.02287" fill="black"/>
<rect x="54.4707" y="187.921" width="2.01956" height="2.02287" fill="black"/>
<rect x="67.9141" y="187.921" width="2.01956" height="2.02287" fill="black"/>
<rect x="81.3652" y="187.921" width="2.01956" height="2.02287" fill="black"/>
<rect x="0.68457" y="201.389" width="2.01956" height="2.02287" fill="black"/>
<rect x="14.1289" y="201.389" width="2.01956" height="2.02287" fill="black"/>
<rect x="27.5811" y="201.389" width="2.01956" height="2.02287" fill="black"/>
<rect x="41.0254" y="201.389" width="2.01956" height="2.02287" fill="black"/>
<rect x="54.4707" y="201.389" width="2.01956" height="2.02287" fill="black"/>
<rect x="67.9141" y="201.389" width="2.01956" height="2.02287" fill="black"/>
<rect x="81.3652" y="201.389" width="2.01956" height="2.02287" fill="black"/>
<rect x="0.68457" y="214.857" width="2.01956" height="2.02287" fill="black"/>
<rect x="14.1289" y="214.857" width="2.01956" height="2.02287" fill="black"/>
<rect x="27.5811" y="214.857" width="2.01956" height="2.02287" fill="black"/>
<rect x="41.0254" y="214.857" width="2.01956" height="2.02287" fill="black"/>
<rect x="54.4707" y="214.857" width="2.01956" height="2.02287" fill="black"/>
<rect x="67.9141" y="214.857" width="2.01956" height="2.02287" fill="black"/>
<rect x="81.3652" y="214.857" width="2.01956" height="2.02287" fill="black"/>
<rect x="0.68457" y="228.329" width="2.01956" height="2.02287" fill="black"/>
<rect x="14.1289" y="228.329" width="2.01956" height="2.02287" fill="black"/>
<rect x="27.5811" y="228.329" width="2.01956" height="2.02287" fill="black"/>
<rect x="41.0254" y="228.329" width="2.01956" height="2.02287" fill="black"/>
<rect x="54.4707" y="228.329" width="2.01956" height="2.02287" fill="black"/>
<rect x="67.9141" y="228.329" width="2.01956" height="2.02287" fill="black"/>
<rect x="81.3652" y="228.329" width="2.01956" height="2.02287" fill="black"/>
<rect x="0.68457" y="241.795" width="2.01956" height="2.02287" fill="black"/>
<rect x="14.1289" y="241.797" width="2.01956" height="2.02287" fill="black"/>
<rect x="27.5811" y="241.797" width="2.01956" height="2.02287" fill="black"/>
<rect x="41.0254" y="241.797" width="2.01956" height="2.02287" fill="black"/>
<rect x="54.4707" y="241.797" width="2.01956" height="2.02287" fill="black"/>
<rect x="67.9141" y="241.797" width="2.01956" height="2.02287" fill="black"/>
<rect x="81.3652" y="241.797" width="2.01956" height="2.02287" fill="black"/>
<rect x="0.68457" y="255.263" width="2.01956" height="2.02287" fill="black"/>
<rect x="14.1289" y="255.263" width="2.01956" height="2.02287" fill="black"/>
<rect x="27.5811" y="255.263" width="2.01956" height="2.02287" fill="black"/>
<rect x="41.0254" y="255.263" width="2.01956" height="2.02287" fill="black"/>
<rect x="54.4707" y="255.263" width="2.01956" height="2.02287" fill="black"/>
<rect x="67.9141" y="255.263" width="2.01956" height="2.02287" fill="black"/>
<rect x="81.3652" y="255.263" width="2.01956" height="2.02287" fill="black"/>
<rect x="0.68457" y="268.729" width="2.01956" height="2.02287" fill="black"/>
<rect x="14.1289" y="268.729" width="2.01956" height="2.02287" fill="black"/>
<rect x="27.5811" y="268.729" width="2.01956" height="2.02287" fill="black"/>
<rect x="41.0254" y="268.729" width="2.01956" height="2.02287" fill="black"/>
<rect x="54.4707" y="268.729" width="2.01956" height="2.02287" fill="black"/>
<rect x="67.9141" y="268.729" width="2.01956" height="2.02287" fill="black"/>
<rect x="81.3652" y="268.729" width="2.01956" height="2.02287" fill="black"/>
<rect x="0.68457" y="282.202" width="2.01956" height="2.02287" fill="black"/>
<rect x="14.1289" y="282.203" width="2.01956" height="2.02287" fill="black"/>
<rect x="27.5811" y="282.203" width="2.01956" height="2.02287" fill="black"/>
<rect x="41.0254" y="282.203" width="2.01956" height="2.02287" fill="black"/>
<rect x="54.4707" y="282.203" width="2.01956" height="2.02287" fill="black"/>
<rect x="67.9141" y="282.203" width="2.01956" height="2.02287" fill="black"/>
<rect x="81.3652" y="282.203" width="2.01956" height="2.02287" fill="black"/>
</g>
<g opacity="0.5">
<rect x="1" width="2" height="2" fill="black"/>
<rect x="14" width="2" height="2" fill="black"/>
<rect x="28" width="2" height="2" fill="black"/>
<rect x="41" width="2" height="2" fill="black"/>
<rect x="54" width="2" height="2" fill="black"/>
<rect x="68" width="2" height="2" fill="black"/>
<rect x="81" width="2" height="2" fill="black"/>
<rect x="1" y="13" width="2" height="2" fill="black"/>
<rect x="14" y="13" width="2" height="2" fill="black"/>
<rect x="28" y="13" width="2" height="2" fill="black"/>
<rect x="41" y="13" width="2" height="2" fill="black"/>
<rect x="54" y="13" width="2" height="2" fill="black"/>
<rect x="68" y="13" width="2" height="2" fill="black"/>
<rect x="81" y="13" width="2" height="2" fill="black"/>
<rect x="1" y="27" width="2" height="2" fill="black"/>
<rect x="14" y="27" width="2" height="2" fill="black"/>
<rect x="28" y="27" width="2" height="2" fill="black"/>
<rect x="41" y="27" width="2" height="2" fill="black"/>
<rect x="54" y="27" width="2" height="2" fill="black"/>
<rect x="68" y="27" width="2" height="2" fill="black"/>
<rect x="81" y="27" width="2" height="2" fill="black"/>
<rect x="1" y="40" width="2" height="2" fill="black"/>
<rect x="14" y="40" width="2" height="2" fill="black"/>
<rect x="28" y="40" width="2" height="2" fill="black"/>
<rect x="41" y="40" width="2" height="2" fill="black"/>
<rect x="54" y="40" width="2" height="2" fill="black"/>
<rect x="68" y="40" width="2" height="2" fill="black"/>
<rect x="81" y="40" width="2" height="2" fill="black"/>
<rect x="1" y="54" width="2" height="2" fill="black"/>
<rect x="14" y="54" width="2" height="2" fill="black"/>
<rect x="28" y="54" width="2" height="2" fill="black"/>
<rect x="41" y="54" width="2" height="2" fill="black"/>
<rect x="54" y="54" width="2" height="2" fill="black"/>
<rect x="68" y="54" width="2" height="2" fill="black"/>
<rect x="81" y="54" width="2" height="2" fill="black"/>
<rect x="1" y="67" width="2" height="2" fill="black"/>
<rect x="14" y="67" width="2" height="2" fill="black"/>
<rect x="28" y="67" width="2" height="2" fill="black"/>
<rect x="41" y="67" width="2" height="2" fill="black"/>
<rect x="54" y="67" width="2" height="2" fill="black"/>
<rect x="68" y="67" width="2" height="2" fill="black"/>
<rect x="81" y="67" width="2" height="2" fill="black"/>
<rect x="1" y="81" width="2" height="2" fill="black"/>
<rect x="14" y="81" width="2" height="2" fill="black"/>
<rect x="28" y="81" width="2" height="2" fill="black"/>
<rect x="41" y="81" width="2" height="2" fill="black"/>
<rect x="54" y="81" width="2" height="2" fill="black"/>
<rect x="68" y="81" width="2" height="2" fill="black"/>
<rect x="81" y="81" width="2" height="2" fill="black"/>
<rect x="1" y="94" width="2" height="2" fill="black"/>
<rect x="14" y="94" width="2" height="2" fill="black"/>
<rect x="28" y="94" width="2" height="2" fill="black"/>
<rect x="41" y="94" width="2" height="2" fill="black"/>
<rect x="54" y="94" width="2" height="2" fill="black"/>
<rect x="68" y="94" width="2" height="2" fill="black"/>
<rect x="81" y="94" width="2" height="2" fill="black"/>
<rect x="1" y="108" width="2" height="2" fill="black"/>
<rect x="14" y="108" width="2" height="2" fill="black"/>
<rect x="28" y="108" width="2" height="2" fill="black"/>
<rect x="41" y="108" width="2" height="2" fill="black"/>
<rect x="54" y="108" width="2" height="2" fill="black"/>
<rect x="68" y="108" width="2" height="2" fill="black"/>
<rect x="81" y="108" width="2" height="2" fill="black"/>
<rect x="1" y="121" width="2" height="2" fill="black"/>
<rect x="14" y="121" width="2" height="2" fill="black"/>
<rect x="28" y="121" width="2" height="2" fill="black"/>
<rect x="41" y="121" width="2" height="2" fill="black"/>
<rect x="54" y="121" width="2" height="2" fill="black"/>
<rect x="68" y="121" width="2" height="2" fill="black"/>
<rect x="81" y="121" width="2" height="2" fill="black"/>
<rect x="1" y="135" width="2" height="2" fill="black"/>
<rect x="14" y="135" width="2" height="2" fill="black"/>
<rect x="28" y="135" width="2" height="2" fill="black"/>
<rect x="41" y="135" width="2" height="2" fill="black"/>
<rect x="54" y="135" width="2" height="2" fill="black"/>
<rect x="68" y="135" width="2" height="2" fill="black"/>
<rect x="81" y="135" width="2" height="2" fill="black"/>
</g>
</svg>
