<svg width="94" height="97" viewBox="0 0 94 97" fill="none" xmlns="http://www.w3.org/2000/svg">
<path d="M11.8492 31.4595C23.7852 22.5203 37.6821 17.0342 52.4099 21.0295C65.7033 24.6358 74.0728 35.9655 65.1093 49.977C60.8663 56.6097 51.8321 61.2524 44.7306 57.4741C36.8189 53.2649 43.0548 42.6409 48.1197 39.577C59.9492 32.4209 76.5998 35.7471 84.7894 49.6465C94.4879 66.1066 78.0854 74.2994 78.0742 74.1659" stroke="black" stroke-width="2.40297" stroke-miterlimit="1.5" stroke-linecap="round" stroke-linejoin="round"/>
<path d="M14.4241 13.7413C14.8574 15.4656 14.6072 17.1917 14.4369 18.9295C13.8782 24.6359 11.6412 30.5602 7.62744 34.3028C12.9091 31.9871 20.4864 30.9785 25.2835 35.0435" stroke="black" stroke-width="2.40297" stroke-miterlimit="1.5" stroke-linecap="round" stroke-linejoin="round"/>
</svg>
